<svg xmlns="http://www.w3.org/2000/svg" width="14" height="14" viewBox="0 0 14 14" fill="none">
    <mask id="path-1-inside-1_715_9980" fill="white">
        <path d="M13.4615 3.26667H14V3.07347L13.8428 2.93627L13.4615 3.26667ZM10.2308 0.466667L10.612 0.136267L10.4537 0H10.2308V0.466667ZM5.92308 6.06667V5.6H5.38462V6.06667H5.92308ZM5.92308 7.93333H5.38462V8.4H5.92308V7.93333ZM8.07692 7.93333H8.61539V7.46667H8.07692V7.93333ZM8.07692 9.8V10.2667H8.61539V9.8H8.07692ZM10.2308 8.86667H9.69231V9.05987L9.84954 9.19707L10.2308 8.86667ZM11.3077 9.8L10.9265 10.1304L11.3077 10.4599L11.6889 10.1304L11.3077 9.8ZM12.3846 8.86667L12.7658 9.19707L12.9231 9.05987V8.86667H12.3846ZM1.61538 6.06667V5.6H1.07692V6.06667H1.61538ZM1.61538 9.8H1.07692V10.2667H1.61538V9.8ZM1.07692 4.66667V1.4H0V4.66667H1.07692ZM12.9231 3.26667V4.66667H14V3.26667H12.9231ZM1.61538 0.933333H10.2308V0H1.61538V0.933333ZM9.84954 0.797067L13.0803 3.59707L13.8428 2.93627L10.612 0.136267L9.84954 0.797067ZM1.07692 1.4C1.07692 1.27623 1.13365 1.15753 1.23463 1.07002C1.33562 0.9825 1.47258 0.933333 1.61538 0.933333V0C1.18696 0 0.776079 0.1475 0.473135 0.41005C0.170192 0.672601 0 1.0287 0 1.4H1.07692ZM0 11.2V12.6H1.07692V11.2H0ZM1.61538 14H12.3846V13.0667H1.61538V14ZM14 12.6V11.2H12.9231V12.6H14ZM12.3846 14C12.813 14 13.2239 13.8525 13.5269 13.5899C13.8298 13.3274 14 12.9713 14 12.6H12.9231C12.9231 12.7238 12.8663 12.8425 12.7654 12.93C12.6644 13.0175 12.5274 13.0667 12.3846 13.0667V14ZM0 12.6C0 12.9713 0.170192 13.3274 0.473135 13.5899C0.776079 13.8525 1.18696 14 1.61538 14V13.0667C1.47258 13.0667 1.33562 13.0175 1.23463 12.93C1.13365 12.8425 1.07692 12.7238 1.07692 12.6H0ZM8.61539 5.6H5.92308V6.53333H8.61539V5.6ZM5.38462 6.06667V7.93333H6.46154V6.06667H5.38462ZM5.92308 8.4H8.07692V7.46667H5.92308V8.4ZM7.53846 7.93333V9.8H8.61539V7.93333H7.53846ZM8.07692 9.33333H5.38462V10.2667H8.07692V9.33333ZM9.69231 5.6V8.86667H10.7692V5.6H9.69231ZM9.84954 9.19707L10.9265 10.1304L11.6889 9.4696L10.612 8.53627L9.84954 9.19707ZM11.6889 10.1304L12.7658 9.19707L12.0034 8.53627L10.9265 9.4696L11.6889 10.1304ZM12.9231 8.86667V5.6H11.8462V8.86667H12.9231ZM4.30769 5.6H1.61538V6.53333H4.30769V5.6ZM1.07692 6.06667V9.8H2.15385V6.06667H1.07692ZM1.61538 10.2667H4.30769V9.33333H1.61538V10.2667Z"/>
    </mask>
    <path d="M13.4615 3.26667H14V3.07347L13.8428 2.93627L13.4615 3.26667ZM10.2308 0.466667L10.612 0.136267L10.4537 0H10.2308V0.466667ZM5.92308 6.06667V5.6H5.38462V6.06667H5.92308ZM5.92308 7.93333H5.38462V8.4H5.92308V7.93333ZM8.07692 7.93333H8.61539V7.46667H8.07692V7.93333ZM8.07692 9.8V10.2667H8.61539V9.8H8.07692ZM10.2308 8.86667H9.69231V9.05987L9.84954 9.19707L10.2308 8.86667ZM11.3077 9.8L10.9265 10.1304L11.3077 10.4599L11.6889 10.1304L11.3077 9.8ZM12.3846 8.86667L12.7658 9.19707L12.9231 9.05987V8.86667H12.3846ZM1.61538 6.06667V5.6H1.07692V6.06667H1.61538ZM1.61538 9.8H1.07692V10.2667H1.61538V9.8ZM1.07692 4.66667V1.4H0V4.66667H1.07692ZM12.9231 3.26667V4.66667H14V3.26667H12.9231ZM1.61538 0.933333H10.2308V0H1.61538V0.933333ZM9.84954 0.797067L13.0803 3.59707L13.8428 2.93627L10.612 0.136267L9.84954 0.797067ZM1.07692 1.4C1.07692 1.27623 1.13365 1.15753 1.23463 1.07002C1.33562 0.9825 1.47258 0.933333 1.61538 0.933333V0C1.18696 0 0.776079 0.1475 0.473135 0.41005C0.170192 0.672601 0 1.0287 0 1.4H1.07692ZM0 11.2V12.6H1.07692V11.2H0ZM1.61538 14H12.3846V13.0667H1.61538V14ZM14 12.6V11.2H12.9231V12.6H14ZM12.3846 14C12.813 14 13.2239 13.8525 13.5269 13.5899C13.8298 13.3274 14 12.9713 14 12.6H12.9231C12.9231 12.7238 12.8663 12.8425 12.7654 12.93C12.6644 13.0175 12.5274 13.0667 12.3846 13.0667V14ZM0 12.6C0 12.9713 0.170192 13.3274 0.473135 13.5899C0.776079 13.8525 1.18696 14 1.61538 14V13.0667C1.47258 13.0667 1.33562 13.0175 1.23463 12.93C1.13365 12.8425 1.07692 12.7238 1.07692 12.6H0ZM8.61539 5.6H5.92308V6.53333H8.61539V5.6ZM5.38462 6.06667V7.93333H6.46154V6.06667H5.38462ZM5.92308 8.4H8.07692V7.46667H5.92308V8.4ZM7.53846 7.93333V9.8H8.61539V7.93333H7.53846ZM8.07692 9.33333H5.38462V10.2667H8.07692V9.33333ZM9.69231 5.6V8.86667H10.7692V5.6H9.69231ZM9.84954 9.19707L10.9265 10.1304L11.6889 9.4696L10.612 8.53627L9.84954 9.19707ZM11.6889 10.1304L12.7658 9.19707L12.0034 8.53627L10.9265 9.4696L11.6889 10.1304ZM12.9231 8.86667V5.6H11.8462V8.86667H12.9231ZM4.30769 5.6H1.61538V6.53333H4.30769V5.6ZM1.07692 6.06667V9.8H2.15385V6.06667H1.07692ZM1.61538 10.2667H4.30769V9.33333H1.61538V10.2667Z" fill="white"/>
    <path d="M1.07692 0.9H0V1.9H1.07692V0.9ZM1.11538 0V0.933333H2.11538V0H1.11538ZM0 13.1H1.07692V12.1H0V13.1ZM12.8846 14V13.0667H11.8846V14H12.8846ZM1.11538 13.0667V14H2.11538V13.0667H1.11538ZM12.9231 13.1H14V12.1H12.9231V13.1ZM13.4615 3.26667L12.8066 2.51098L10.7808 4.26667H13.4615V3.26667ZM14 3.07347H15V2.61888L14.6575 2.32L14 3.07347ZM13.8428 2.93627L14.5003 2.18279L14.4977 2.18058L13.8428 2.93627ZM10.2308 0.466667H9.23077V2.65663L10.8857 1.22236L10.2308 0.466667ZM10.612 0.136267L11.2669 -0.619427L11.2644 -0.62163L10.612 0.136267ZM10.4537 0L11.1061 -0.757897L10.8248 -1H10.4537V0ZM5.92308 6.06667V7.06667H6.92308V6.06667H5.92308ZM5.38462 5.6V4.6H4.38462V5.6H5.38462ZM5.92308 7.93333H6.92308V6.93333H5.92308V7.93333ZM5.38462 8.4H4.38462V9.4H5.38462V8.4ZM8.07692 7.93333H7.07692V8.93333H8.07692V7.93333ZM8.61539 7.46667H9.61539V6.46667H8.61539V7.46667ZM8.07692 9.8V8.8H7.07692V9.8H8.07692ZM8.61539 10.2667V11.2667H9.61539V10.2667H8.61539ZM10.2308 8.86667L10.8857 9.62236L12.9115 7.86667H10.2308V8.86667ZM9.69231 9.05987H8.69231V9.51445L9.03483 9.81334L9.69231 9.05987ZM9.84954 9.19707L9.19205 9.95054L9.19461 9.95276L9.84954 9.19707ZM11.3077 9.8L11.9626 9.04431L11.3077 8.4767L10.6528 9.04431L11.3077 9.8ZM10.9265 10.1304L10.2715 10.8861L10.2726 10.887L10.9265 10.1304ZM11.3077 10.4599L10.6538 11.2165L11.3077 11.7816L11.9616 11.2165L11.3077 10.4599ZM11.6889 10.1304L12.3428 10.887L12.3439 10.8861L11.6889 10.1304ZM12.3846 8.86667V7.86667H9.70389L11.7297 9.62236L12.3846 8.86667ZM12.7658 9.19707L13.4208 9.95276L13.4233 9.95054L12.7658 9.19707ZM12.9231 9.05987L13.5806 9.81334L13.9231 9.51445V9.05987H12.9231ZM1.61538 6.06667V7.06667H2.61538V6.06667H1.61538ZM1.07692 5.6V4.6H0.0769231V5.6H1.07692ZM1.61538 9.8H2.61538V8.8H1.61538V9.8ZM1.07692 10.2667H0.0769231V11.2667H1.07692V10.2667ZM1.07692 4.66667V5.66667H2.07692V4.66667H1.07692ZM0 1.4H-1H0ZM0 4.66667H-1V5.66667H0V4.66667ZM12.9231 3.26667V2.26667H11.9231V3.26667H12.9231ZM12.9231 4.66667H11.9231V5.66667H12.9231V4.66667ZM14 4.66667V5.66667H15V4.66667H14ZM1.61538 0.933333L1.61538 -0.0666667L1.61538 0.933333ZM10.2308 0.933333V1.93333H11.2308V0.933333H10.2308ZM1.61538 0L1.61538 -1L1.61538 0ZM9.84954 0.797067L9.19461 0.0413775L8.32266 0.797067L9.19461 1.55276L9.84954 0.797067ZM13.0803 3.59707L12.4254 4.35276L13.0803 4.92036L13.7352 4.35276L13.0803 3.59707ZM0 11.2V10.2H-1V11.2H0ZM0 12.6L-1 12.6L0 12.6ZM1.07692 11.2H2.07692V10.2H1.07692V11.2ZM1.61538 14V15V14ZM12.3846 14L12.3846 15L12.3846 14ZM14 11.2H15V10.2H14V11.2ZM12.9231 11.2V10.2H11.9231V11.2H12.9231ZM8.61539 5.6H9.61539V4.6H8.61539V5.6ZM5.92308 6.53333H4.92308V7.53333H5.92308V6.53333ZM8.61539 6.53333V7.53333H9.61539V6.53333H8.61539ZM6.46154 7.93333V8.93333H7.46154V7.93333H6.46154ZM6.46154 6.06667H7.46154V5.06667H6.46154V6.06667ZM8.07692 8.4V9.4H9.07692V8.4H8.07692ZM5.92308 7.46667V6.46667H4.92308V7.46667H5.92308ZM7.53846 7.93333V6.93333H6.53846V7.93333H7.53846ZM7.53846 9.8H6.53846V10.8H7.53846V9.8ZM8.07692 9.33333H9.07692V8.33333H8.07692V9.33333ZM5.38462 9.33333V8.33333H4.38462V9.33333H5.38462ZM5.38462 10.2667H4.38462V11.2667H5.38462V10.2667ZM9.69231 5.6V4.6H8.69231V5.6H9.69231ZM10.7692 8.86667V9.86667H11.7692V8.86667H10.7692ZM10.7692 5.6H11.7692V4.6H10.7692V5.6ZM11.6889 9.4696L12.3439 10.2253L13.2158 9.4696L12.3439 8.71391L11.6889 9.4696ZM10.612 8.53627L11.2669 7.78058L10.612 7.21297L9.95707 7.78058L10.612 8.53627ZM12.0034 8.53627L12.6583 7.78058L12.0034 7.21297L11.3485 7.78058L12.0034 8.53627ZM10.9265 9.4696L10.2715 8.71391L9.39958 9.4696L10.2715 10.2253L10.9265 9.4696ZM12.9231 5.6H13.9231V4.6H12.9231V5.6ZM11.8462 5.6V4.6H10.8462V5.6H11.8462ZM11.8462 8.86667H10.8462V9.86667H11.8462V8.86667ZM4.30769 5.6H5.30769V4.6H4.30769V5.6ZM1.61538 6.53333H0.615385V7.53333H1.61538V6.53333ZM4.30769 6.53333V7.53333H5.30769V6.53333H4.30769ZM2.15385 9.8V10.8H3.15385V9.8H2.15385ZM2.15385 6.06667H3.15385V5.06667H2.15385V6.06667ZM4.30769 10.2667V11.2667H5.30769V10.2667H4.30769ZM4.30769 9.33333H5.30769V8.33333H4.30769V9.33333ZM1.61538 9.33333V8.33333H0.615385V9.33333H1.61538ZM13.4615 4.26667H14V2.26667H13.4615V4.26667ZM15 3.26667V3.07347H13V3.26667H15ZM14.6575 2.32L14.5003 2.1828L13.1853 3.68974L13.3425 3.82694L14.6575 2.32ZM13.1878 2.18058L12.8066 2.51098L14.1165 4.02236L14.4977 3.69196L13.1878 2.18058ZM10.8857 1.22236L11.2669 0.891956L9.95707 -0.619423L9.57584 -0.289023L10.8857 1.22236ZM11.2644 -0.62163L11.1061 -0.757897L9.80132 0.757897L9.95963 0.894164L11.2644 -0.62163ZM10.4537 -1H10.2308V1H10.4537V-1ZM9.23077 0V0.466667H11.2308V0H9.23077ZM6.92308 6.06667V5.6H4.92308V6.06667H6.92308ZM5.92308 4.6H5.38462V6.6H5.92308V4.6ZM4.38462 5.6V6.06667H6.38462V5.6H4.38462ZM5.38462 7.06667H5.92308V5.06667H5.38462V7.06667ZM5.92308 6.93333H5.38462V8.93333H5.92308V6.93333ZM4.38462 7.93333V8.4H6.38462V7.93333H4.38462ZM5.38462 9.4H5.92308V7.4H5.38462V9.4ZM6.92308 8.4V7.93333H4.92308V8.4H6.92308ZM8.07692 8.93333H8.61539V6.93333H8.07692V8.93333ZM9.61539 7.93333V7.46667H7.61539V7.93333H9.61539ZM8.61539 6.46667H8.07692V8.46667H8.61539V6.46667ZM7.07692 7.46667V7.93333H9.07692V7.46667H7.07692ZM7.07692 9.8V10.2667H9.07692V9.8H7.07692ZM8.07692 11.2667H8.61539V9.26667H8.07692V11.2667ZM9.61539 10.2667V9.8H7.61539V10.2667H9.61539ZM8.61539 8.8H8.07692V10.8H8.61539V8.8ZM10.2308 7.86667H9.69231V9.86667H10.2308V7.86667ZM8.69231 8.86667V9.05987H10.6923V8.86667H8.69231ZM9.03483 9.81334L9.19206 9.95054L10.507 8.4436L10.3498 8.3064L9.03483 9.81334ZM10.5045 9.95276L10.8857 9.62236L9.57584 8.11098L9.19461 8.44138L10.5045 9.95276ZM10.6528 9.04431L10.2715 9.37471L11.5814 10.8861L11.9626 10.5557L10.6528 9.04431ZM10.2726 10.887L10.6538 11.2165L11.9616 9.70326L11.5803 9.37379L10.2726 10.887ZM11.9616 11.2165L12.3428 10.887L11.0351 9.37379L10.6538 9.70326L11.9616 11.2165ZM12.3439 9.37471L11.9626 9.04431L10.6528 10.5557L11.034 10.8861L12.3439 9.37471ZM11.7297 9.62236L12.1109 9.95276L13.4208 8.44138L13.0395 8.11098L11.7297 9.62236ZM13.4233 9.95054L13.5806 9.81334L12.2656 8.3064L12.1084 8.4436L13.4233 9.95054ZM13.9231 9.05987V8.86667H11.9231V9.05987H13.9231ZM12.9231 7.86667H12.3846V9.86667H12.9231V7.86667ZM2.61538 6.06667V5.6H0.615385V6.06667H2.61538ZM1.61538 4.6H1.07692V6.6H1.61538V4.6ZM0.0769231 5.6V6.06667H2.07692V5.6H0.0769231ZM1.07692 7.06667H1.61538V5.06667H1.07692V7.06667ZM1.61538 8.8H1.07692V10.8H1.61538V8.8ZM0.0769231 9.8V10.2667H2.07692V9.8H0.0769231ZM1.07692 11.2667H1.61538V9.26667H1.07692V11.2667ZM2.61538 10.2667V9.8H0.615385V10.2667H2.61538ZM2.07692 4.66667V1.4H0.0769231V4.66667H2.07692ZM-1 1.4V4.66667H1V1.4H-1ZM0 5.66667H1.07692V3.66667H0V5.66667ZM11.9231 3.26667V4.66667H13.9231V3.26667H11.9231ZM12.9231 5.66667H14V3.66667H12.9231V5.66667ZM15 4.66667V3.26667H13V4.66667H15ZM14 2.26667H12.9231V4.26667H14V2.26667ZM1.61538 1.93333H10.2308V-0.0666667H1.61538V1.93333ZM11.2308 0.933333V0H9.23077V0.933333H11.2308ZM10.2308 -1H1.61538V1H10.2308V-1ZM9.19461 1.55276L12.4254 4.35276L13.7352 2.84138L10.5045 0.0413776L9.19461 1.55276ZM13.7352 4.35276L14.4977 3.69196L13.1878 2.18058L12.4254 2.84138L13.7352 4.35276ZM14.4977 2.18058L11.2669 -0.619422L9.95707 0.891956L13.1878 3.69196L14.4977 2.18058ZM9.95707 -0.619423L9.19461 0.0413775L10.5045 1.55276L11.2669 0.891956L9.95707 -0.619423ZM2.07692 1.4C2.07692 1.59139 1.988 1.74039 1.88957 1.82571L0.579704 0.314328C0.279305 0.574674 0.0769231 0.96107 0.0769231 1.4H2.07692ZM1.88957 1.82571C1.79563 1.90711 1.69525 1.93333 1.61538 1.93333L1.61538 -0.0666667C1.24991 -0.0666667 0.875599 0.0578857 0.579704 0.314328L1.88957 1.82571ZM1.61538 -1C0.964289 -1 0.316062 -0.777115 -0.181795 -0.345639L1.12807 1.16574C1.2361 1.07211 1.40963 1 1.61538 1L1.61538 -1ZM-0.181795 -0.345639C-0.684157 0.0897419 -1 0.713535 -1 1.4L1 1.4C1 1.34386 1.02454 1.25546 1.12807 1.16574L-0.181795 -0.345639ZM-1 11.2V12.6H1V11.2H-1ZM2.07692 12.6V11.2H0.0769231V12.6H2.07692ZM1.07692 10.2H0V12.2H1.07692V10.2ZM1.61538 15H12.3846V13H1.61538V15ZM12.3846 12.0667H1.61538V14.0667H12.3846V12.0667ZM15 12.6V11.2H13V12.6H15ZM14 10.2H12.9231V12.2H14V10.2ZM11.9231 11.2V12.6H13.9231V11.2H11.9231ZM12.3846 15C13.0357 15 13.6839 14.7771 14.1818 14.3456L12.8719 12.8343C12.7639 12.9279 12.5904 13 12.3846 13L12.3846 15ZM14.1818 14.3456C14.6842 13.9103 15 13.2865 15 12.6H13C13 12.6561 12.9755 12.7445 12.8719 12.8343L14.1818 14.3456ZM11.9231 12.6C11.9231 12.4086 12.012 12.2596 12.1104 12.1743L13.4203 13.6857C13.7207 13.4253 13.9231 13.0389 13.9231 12.6H11.9231ZM12.1104 12.1743C12.2044 12.0929 12.3048 12.0667 12.3846 12.0667V14.0667C12.7501 14.0667 13.1244 13.9421 13.4203 13.6857L12.1104 12.1743ZM-1 12.6C-1 13.2865 -0.684157 13.9103 -0.181795 14.3456L1.12807 12.8343C1.02454 12.7445 1 12.6561 1 12.6L-1 12.6ZM-0.181795 14.3456C0.316062 14.7771 0.964289 15 1.61538 15L1.61538 13C1.40963 13 1.2361 12.9279 1.12807 12.8343L-0.181795 14.3456ZM1.61538 12.0667C1.69524 12.0667 1.79563 12.0929 1.88957 12.1743L0.579704 13.6857C0.8756 13.9421 1.24991 14.0667 1.61538 14.0667V12.0667ZM1.88957 12.1743C1.988 12.2596 2.07692 12.4086 2.07692 12.6H0.0769231C0.0769231 13.0389 0.279304 13.4253 0.579704 13.6857L1.88957 12.1743ZM8.61539 4.6H5.92308V6.6H8.61539V4.6ZM4.92308 5.6V6.53333H6.92308V5.6H4.92308ZM5.92308 7.53333H8.61539V5.53333H5.92308V7.53333ZM9.61539 6.53333V5.6H7.61539V6.53333H9.61539ZM4.38462 6.06667V7.93333H6.38462V6.06667H4.38462ZM5.38462 8.93333H6.46154V6.93333H5.38462V8.93333ZM7.46154 7.93333V6.06667H5.46154V7.93333H7.46154ZM6.46154 5.06667H5.38462V7.06667H6.46154V5.06667ZM5.92308 9.4H8.07692V7.4H5.92308V9.4ZM9.07692 8.4V7.46667H7.07692V8.4H9.07692ZM8.07692 6.46667H5.92308V8.46667H8.07692V6.46667ZM4.92308 7.46667V8.4H6.92308V7.46667H4.92308ZM6.53846 7.93333V9.8H8.53846V7.93333H6.53846ZM7.53846 10.8H8.61539V8.8H7.53846V10.8ZM9.61539 9.8V7.93333H7.61539V9.8H9.61539ZM8.61539 6.93333H7.53846V8.93333H8.61539V6.93333ZM8.07692 8.33333H5.38462V10.3333H8.07692V8.33333ZM4.38462 9.33333V10.2667H6.38462V9.33333H4.38462ZM5.38462 11.2667H8.07692V9.26667H5.38462V11.2667ZM9.07692 10.2667V9.33333H7.07692V10.2667H9.07692ZM8.69231 5.6V8.86667H10.6923V5.6H8.69231ZM9.69231 9.86667H10.7692V7.86667H9.69231V9.86667ZM11.7692 8.86667V5.6H9.76923V8.86667H11.7692ZM10.7692 4.6H9.69231V6.6H10.7692V4.6ZM9.19461 9.95276L10.2715 10.8861L11.5814 9.37471L10.5045 8.44138L9.19461 9.95276ZM11.5814 10.8861L12.3439 10.2253L11.034 8.71391L10.2715 9.37471L11.5814 10.8861ZM12.3439 8.71391L11.2669 7.78058L9.95707 9.29196L11.034 10.2253L12.3439 8.71391ZM9.95707 7.78058L9.19461 8.44138L10.5045 9.95276L11.2669 9.29196L9.95707 7.78058ZM12.3439 10.8861L13.4208 9.95276L12.1109 8.44138L11.034 9.37471L12.3439 10.8861ZM13.4208 8.44138L12.6583 7.78058L11.3485 9.29196L12.1109 9.95276L13.4208 8.44138ZM11.3485 7.78058L10.2715 8.71391L11.5814 10.2253L12.6583 9.29196L11.3485 7.78058ZM10.2715 10.2253L11.034 10.8861L12.3439 9.37471L11.5814 8.71391L10.2715 10.2253ZM13.9231 8.86667V5.6H11.9231V8.86667H13.9231ZM12.9231 4.6H11.8462V6.6H12.9231V4.6ZM10.8462 5.6V8.86667H12.8462V5.6H10.8462ZM11.8462 9.86667H12.9231V7.86667H11.8462V9.86667ZM4.30769 4.6H1.61538V6.6H4.30769V4.6ZM0.615385 5.6V6.53333H2.61538V5.6H0.615385ZM1.61538 7.53333H4.30769V5.53333H1.61538V7.53333ZM5.30769 6.53333V5.6H3.30769V6.53333H5.30769ZM0.0769231 6.06667V9.8H2.07692V6.06667H0.0769231ZM1.07692 10.8H2.15385V8.8H1.07692V10.8ZM3.15385 9.8V6.06667H1.15385V9.8H3.15385ZM2.15385 5.06667H1.07692V7.06667H2.15385V5.06667ZM1.61538 11.2667H4.30769V9.26667H1.61538V11.2667ZM5.30769 10.2667V9.33333H3.30769V10.2667H5.30769ZM4.30769 8.33333H1.61538V10.3333H4.30769V8.33333ZM0.615385 9.33333V10.2667H2.61538V9.33333H0.615385Z" fill="white" mask="url(#path-1-inside-1_715_9980)"/>
</svg>