<svg xmlns="http://www.w3.org/2000/svg" width="14" height="14" viewBox="0 0 14 14" fill="none">
    <mask id="path-1-inside-1_715_9114" fill="white">
        <path d="M1.61538 6.06667V5.6H1.07692V6.06667H1.61538ZM5.92308 6.06667V5.6H5.38462V6.06667H5.92308ZM5.92308 9.8H5.38462V10.2667H5.92308V9.8ZM13.4615 3.26667H14V3.07347L13.8428 2.93627L13.4615 3.26667ZM10.2308 0.466667L10.612 0.136267L10.4537 0H10.2308V0.466667ZM1.61538 6.53333H2.69231V5.6H1.61538V6.53333ZM2.15385 10.2667V7.93333H1.07692V10.2667H2.15385ZM2.15385 7.93333V6.06667H1.07692V7.93333H2.15385ZM2.69231 7.46667H1.61538V8.4H2.69231V7.46667ZM3.23077 7C3.23077 7.12377 3.17404 7.24247 3.07306 7.32998C2.97208 7.4175 2.83512 7.46667 2.69231 7.46667V8.4C3.12073 8.4 3.53161 8.2525 3.83456 7.98995C4.1375 7.7274 4.30769 7.3713 4.30769 7H3.23077ZM2.69231 6.53333C2.83512 6.53333 2.97208 6.5825 3.07306 6.67002C3.17404 6.75753 3.23077 6.87623 3.23077 7H4.30769C4.30769 6.6287 4.1375 6.2726 3.83456 6.01005C3.53161 5.7475 3.12073 5.6 2.69231 5.6V6.53333ZM5.38462 6.06667V9.8H6.46154V6.06667H5.38462ZM5.92308 10.2667H7V9.33333H5.92308V10.2667ZM8.61539 8.86667V7H7.53846V8.86667H8.61539ZM7 5.6H5.92308V6.53333H7V5.6ZM8.61539 7C8.61539 6.6287 8.44519 6.2726 8.14225 6.01005C7.83931 5.7475 7.42843 5.6 7 5.6V6.53333C7.14281 6.53333 7.27977 6.5825 7.38075 6.67002C7.48173 6.75753 7.53846 6.87623 7.53846 7H8.61539ZM7 10.2667C7.42843 10.2667 7.83931 10.1192 8.14225 9.85662C8.44519 9.59407 8.61539 9.23797 8.61539 8.86667H7.53846C7.53846 8.99043 7.48173 9.10913 7.38075 9.19665C7.27977 9.28417 7.14281 9.33333 7 9.33333V10.2667ZM9.69231 5.6V10.2667H10.7692V5.6H9.69231ZM10.2308 6.53333H12.9231V5.6H10.2308V6.53333ZM10.2308 8.4H11.8462V7.46667H10.2308V8.4ZM1.07692 4.66667V1.4H0V4.66667H1.07692ZM12.9231 3.26667V4.66667H14V3.26667H12.9231ZM1.61538 0.933333H10.2308V0H1.61538V0.933333ZM9.84954 0.797067L13.0803 3.59707L13.8428 2.93627L10.612 0.136267L9.84954 0.797067ZM1.07692 1.4C1.07692 1.27623 1.13365 1.15753 1.23463 1.07002C1.33562 0.9825 1.47258 0.933333 1.61538 0.933333V0C1.18696 0 0.776079 0.1475 0.473135 0.41005C0.170192 0.672601 0 1.0287 0 1.4H1.07692ZM0 11.2V12.6H1.07692V11.2H0ZM1.61538 14H12.3846V13.0667H1.61538V14ZM14 12.6V11.2H12.9231V12.6H14ZM12.3846 14C12.813 14 13.2239 13.8525 13.5269 13.5899C13.8298 13.3274 14 12.9713 14 12.6H12.9231C12.9231 12.7238 12.8663 12.8425 12.7654 12.93C12.6644 13.0175 12.5274 13.0667 12.3846 13.0667V14ZM0 12.6C0 12.9713 0.170192 13.3274 0.473135 13.5899C0.776079 13.8525 1.18696 14 1.61538 14V13.0667C1.47258 13.0667 1.33562 13.0175 1.23463 12.93C1.13365 12.8425 1.07692 12.7238 1.07692 12.6H0Z"/>
    </mask>
    <path d="M1.61538 6.06667V5.6H1.07692V6.06667H1.61538ZM5.92308 6.06667V5.6H5.38462V6.06667H5.92308ZM5.92308 9.8H5.38462V10.2667H5.92308V9.8ZM13.4615 3.26667H14V3.07347L13.8428 2.93627L13.4615 3.26667ZM10.2308 0.466667L10.612 0.136267L10.4537 0H10.2308V0.466667ZM1.61538 6.53333H2.69231V5.6H1.61538V6.53333ZM2.15385 10.2667V7.93333H1.07692V10.2667H2.15385ZM2.15385 7.93333V6.06667H1.07692V7.93333H2.15385ZM2.69231 7.46667H1.61538V8.4H2.69231V7.46667ZM3.23077 7C3.23077 7.12377 3.17404 7.24247 3.07306 7.32998C2.97208 7.4175 2.83512 7.46667 2.69231 7.46667V8.4C3.12073 8.4 3.53161 8.2525 3.83456 7.98995C4.1375 7.7274 4.30769 7.3713 4.30769 7H3.23077ZM2.69231 6.53333C2.83512 6.53333 2.97208 6.5825 3.07306 6.67002C3.17404 6.75753 3.23077 6.87623 3.23077 7H4.30769C4.30769 6.6287 4.1375 6.2726 3.83456 6.01005C3.53161 5.7475 3.12073 5.6 2.69231 5.6V6.53333ZM5.38462 6.06667V9.8H6.46154V6.06667H5.38462ZM5.92308 10.2667H7V9.33333H5.92308V10.2667ZM8.61539 8.86667V7H7.53846V8.86667H8.61539ZM7 5.6H5.92308V6.53333H7V5.6ZM8.61539 7C8.61539 6.6287 8.44519 6.2726 8.14225 6.01005C7.83931 5.7475 7.42843 5.6 7 5.6V6.53333C7.14281 6.53333 7.27977 6.5825 7.38075 6.67002C7.48173 6.75753 7.53846 6.87623 7.53846 7H8.61539ZM7 10.2667C7.42843 10.2667 7.83931 10.1192 8.14225 9.85662C8.44519 9.59407 8.61539 9.23797 8.61539 8.86667H7.53846C7.53846 8.99043 7.48173 9.10913 7.38075 9.19665C7.27977 9.28417 7.14281 9.33333 7 9.33333V10.2667ZM9.69231 5.6V10.2667H10.7692V5.6H9.69231ZM10.2308 6.53333H12.9231V5.6H10.2308V6.53333ZM10.2308 8.4H11.8462V7.46667H10.2308V8.4ZM1.07692 4.66667V1.4H0V4.66667H1.07692ZM12.9231 3.26667V4.66667H14V3.26667H12.9231ZM1.61538 0.933333H10.2308V0H1.61538V0.933333ZM9.84954 0.797067L13.0803 3.59707L13.8428 2.93627L10.612 0.136267L9.84954 0.797067ZM1.07692 1.4C1.07692 1.27623 1.13365 1.15753 1.23463 1.07002C1.33562 0.9825 1.47258 0.933333 1.61538 0.933333V0C1.18696 0 0.776079 0.1475 0.473135 0.41005C0.170192 0.672601 0 1.0287 0 1.4H1.07692ZM0 11.2V12.6H1.07692V11.2H0ZM1.61538 14H12.3846V13.0667H1.61538V14ZM14 12.6V11.2H12.9231V12.6H14ZM12.3846 14C12.813 14 13.2239 13.8525 13.5269 13.5899C13.8298 13.3274 14 12.9713 14 12.6H12.9231C12.9231 12.7238 12.8663 12.8425 12.7654 12.93C12.6644 13.0175 12.5274 13.0667 12.3846 13.0667V14ZM0 12.6C0 12.9713 0.170192 13.3274 0.473135 13.5899C0.776079 13.8525 1.18696 14 1.61538 14V13.0667C1.47258 13.0667 1.33562 13.0175 1.23463 12.93C1.13365 12.8425 1.07692 12.7238 1.07692 12.6H0Z" fill="white"/>
    <path d="M3.19231 6.53333V5.6H2.19231V6.53333H3.19231ZM2.15385 7.43333H1.07692V8.43333H2.15385V7.43333ZM3.19231 8.4V7.46667H2.19231V8.4H3.19231ZM4.30769 6.5H3.23077V7.5H4.30769V6.5ZM7.5 10.2667V9.33333H6.5V10.2667H7.5ZM8.61539 6.5H7.53846V7.5H8.61539V6.5ZM7.53846 9.36667H8.61539V8.36667H7.53846V9.36667ZM7.5 6.53333V5.6H6.5V6.53333H7.5ZM1.07692 0.9H0V1.9H1.07692V0.9ZM1.11538 0V0.933333H2.11538V0H1.11538ZM0 13.1H1.07692V12.1H0V13.1ZM12.8846 14V13.0667H11.8846V14H12.8846ZM1.11538 13.0667V14H2.11538V13.0667H1.11538ZM12.9231 13.1H14V12.1H12.9231V13.1ZM1.61538 6.06667V7.06667H2.61538V6.06667H1.61538ZM1.07692 5.6V4.6H0.0769231V5.6H1.07692ZM5.92308 6.06667V7.06667H6.92308V6.06667H5.92308ZM5.38462 5.6V4.6H4.38462V5.6H5.38462ZM5.92308 9.8H6.92308V8.8H5.92308V9.8ZM5.38462 10.2667H4.38462V11.2667H5.38462V10.2667ZM13.4615 3.26667L12.8066 2.51098L10.7808 4.26667H13.4615V3.26667ZM14 3.07347H15V2.61888L14.6575 2.32L14 3.07347ZM13.8428 2.93627L14.5003 2.18279L14.4977 2.18058L13.8428 2.93627ZM10.2308 0.466667H9.23077V2.65663L10.8857 1.22236L10.2308 0.466667ZM10.612 0.136267L11.2669 -0.619427L11.2644 -0.62163L10.612 0.136267ZM10.4537 0L11.1061 -0.757897L10.8248 -1H10.4537V0ZM1.61538 6.53333H0.615385V7.53333H1.61538V6.53333ZM2.15385 10.2667V11.2667H3.15385V10.2667H2.15385ZM1.07692 10.2667H0.0769231V11.2667H1.07692V10.2667ZM2.15385 6.06667H3.15385V5.06667H2.15385V6.06667ZM1.61538 7.46667V6.46667H0.615385V7.46667H1.61538ZM1.61538 8.4H0.615385V9.4H1.61538V8.4ZM2.69231 8.4L2.69231 9.4L2.69231 8.4ZM4.30769 7L5.30769 7L4.30769 7ZM6.46154 9.8V10.8H7.46154V9.8H6.46154ZM6.46154 6.06667H7.46154V5.06667H6.46154V6.06667ZM7 10.2667L7 11.2667L7 10.2667ZM5.92308 9.33333V8.33333H4.92308V9.33333H5.92308ZM8.61539 8.86667H9.61539H8.61539ZM8.61539 7L9.61539 7L8.61539 7ZM5.92308 6.53333H4.92308V7.53333H5.92308V6.53333ZM9.69231 5.6V4.6H8.69231V5.6H9.69231ZM9.69231 10.2667H8.69231V11.2667H9.69231V10.2667ZM10.7692 10.2667V11.2667H11.7692V10.2667H10.7692ZM10.7692 5.6H11.7692V4.6H10.7692V5.6ZM10.2308 6.53333H9.23077V7.53333H10.2308V6.53333ZM12.9231 6.53333V7.53333H13.9231V6.53333H12.9231ZM12.9231 5.6H13.9231V4.6H12.9231V5.6ZM10.2308 5.6V4.6H9.23077V5.6H10.2308ZM10.2308 8.4H9.23077V9.4H10.2308V8.4ZM11.8462 8.4V9.4H12.8462V8.4H11.8462ZM11.8462 7.46667H12.8462V6.46667H11.8462V7.46667ZM10.2308 7.46667V6.46667H9.23077V7.46667H10.2308ZM1.07692 4.66667V5.66667H2.07692V4.66667H1.07692ZM0 1.4H-1H0ZM0 4.66667H-1V5.66667H0V4.66667ZM12.9231 3.26667V2.26667H11.9231V3.26667H12.9231ZM12.9231 4.66667H11.9231V5.66667H12.9231V4.66667ZM14 4.66667V5.66667H15V4.66667H14ZM1.61538 0.933333L1.61538 -0.0666667L1.61538 0.933333ZM10.2308 0.933333V1.93333H11.2308V0.933333H10.2308ZM1.61538 0L1.61538 -1L1.61538 0ZM9.84954 0.797067L9.19461 0.0413775L8.32266 0.797067L9.19461 1.55276L9.84954 0.797067ZM13.0803 3.59707L12.4254 4.35276L13.0803 4.92036L13.7352 4.35276L13.0803 3.59707ZM0 11.2V10.2H-1V11.2H0ZM0 12.6L-1 12.6L0 12.6ZM1.07692 11.2H2.07692V10.2H1.07692V11.2ZM1.61538 14V15V14ZM12.3846 14L12.3846 15L12.3846 14ZM14 11.2H15V10.2H14V11.2ZM12.9231 11.2V10.2H11.9231V11.2H12.9231ZM2.61538 6.06667V5.6H0.615385V6.06667H2.61538ZM1.61538 4.6H1.07692V6.6H1.61538V4.6ZM0.0769231 5.6V6.06667H2.07692V5.6H0.0769231ZM1.07692 7.06667H1.61538V5.06667H1.07692V7.06667ZM6.92308 6.06667V5.6H4.92308V6.06667H6.92308ZM5.92308 4.6H5.38462V6.6H5.92308V4.6ZM4.38462 5.6V6.06667H6.38462V5.6H4.38462ZM5.38462 7.06667H5.92308V5.06667H5.38462V7.06667ZM5.92308 8.8H5.38462V10.8H5.92308V8.8ZM4.38462 9.8V10.2667H6.38462V9.8H4.38462ZM5.38462 11.2667H5.92308V9.26667H5.38462V11.2667ZM6.92308 10.2667V9.8H4.92308V10.2667H6.92308ZM13.4615 4.26667H14V2.26667H13.4615V4.26667ZM15 3.26667V3.07347H13V3.26667H15ZM14.6575 2.32L14.5003 2.1828L13.1853 3.68974L13.3425 3.82694L14.6575 2.32ZM13.1878 2.18058L12.8066 2.51098L14.1165 4.02236L14.4977 3.69196L13.1878 2.18058ZM10.8857 1.22236L11.2669 0.891956L9.95707 -0.619423L9.57584 -0.289023L10.8857 1.22236ZM11.2644 -0.62163L11.1061 -0.757897L9.80132 0.757897L9.95963 0.894164L11.2644 -0.62163ZM10.4537 -1H10.2308V1H10.4537V-1ZM9.23077 0V0.466667H11.2308V0H9.23077ZM1.61538 7.53333H2.69231V5.53333H1.61538V7.53333ZM2.69231 4.6H1.61538V6.6H2.69231V4.6ZM0.615385 5.6V6.53333H2.61538V5.6H0.615385ZM3.15385 10.2667V7.93333H1.15385V10.2667H3.15385ZM0.0769231 7.93333V10.2667H2.07692V7.93333H0.0769231ZM1.07692 11.2667H2.15385V9.26667H1.07692V11.2667ZM3.15385 7.93333V6.06667H1.15385V7.93333H3.15385ZM2.15385 5.06667H1.07692V7.06667H2.15385V5.06667ZM0.0769231 6.06667V7.93333H2.07692V6.06667H0.0769231ZM2.69231 6.46667H1.61538V8.46667H2.69231V6.46667ZM0.615385 7.46667V8.4H2.61538V7.46667H0.615385ZM1.61538 9.4H2.69231V7.4H1.61538V9.4ZM2.23077 7C2.23077 6.80861 2.31969 6.65961 2.41813 6.57429L3.72799 8.08567C4.02839 7.82533 4.23077 7.43893 4.23077 7H2.23077ZM2.41813 6.57429C2.51206 6.49289 2.61245 6.46667 2.69231 6.46667V8.46667C3.05779 8.46667 3.43209 8.34211 3.72799 8.08567L2.41813 6.57429ZM2.69231 9.4C3.3434 9.4 3.99163 9.17712 4.48949 8.74564L3.17963 7.23426C3.0716 7.32789 2.89807 7.4 2.69231 7.4L2.69231 9.4ZM4.48949 8.74564C4.99185 8.31026 5.30769 7.68646 5.30769 7H3.30769C3.30769 7.05614 3.28315 7.14454 3.17963 7.23426L4.48949 8.74564ZM2.69231 7.53333C2.61245 7.53333 2.51206 7.50711 2.41813 7.42571L3.72799 5.91433C3.43209 5.65789 3.05779 5.53333 2.69231 5.53333V7.53333ZM2.41813 7.42571C2.31969 7.34039 2.23077 7.19139 2.23077 7H4.23077C4.23077 6.56107 4.02839 6.17467 3.72799 5.91433L2.41813 7.42571ZM5.30769 7C5.30769 6.31354 4.99185 5.68974 4.48949 5.25436L3.17963 6.76574C3.28315 6.85546 3.30769 6.94386 3.30769 7L5.30769 7ZM4.48949 5.25436C3.99163 4.82288 3.3434 4.6 2.69231 4.6V6.6C2.89807 6.6 3.0716 6.67211 3.17963 6.76574L4.48949 5.25436ZM4.38462 6.06667V9.8H6.38462V6.06667H4.38462ZM5.38462 10.8H6.46154V8.8H5.38462V10.8ZM7.46154 9.8V6.06667H5.46154V9.8H7.46154ZM6.46154 5.06667H5.38462V7.06667H6.46154V5.06667ZM5.92308 11.2667H7V9.26667H5.92308V11.2667ZM7 8.33333H5.92308V10.3333H7V8.33333ZM4.92308 9.33333V10.2667H6.92308V9.33333H4.92308ZM9.61539 8.86667V7H7.61539V8.86667H9.61539ZM6.53846 7V8.86667H8.53846V7H6.53846ZM7 4.6H5.92308V6.6H7V4.6ZM4.92308 5.6V6.53333H6.92308V5.6H4.92308ZM5.92308 7.53333H7V5.53333H5.92308V7.53333ZM9.61539 7C9.61539 6.31354 9.29954 5.68974 8.79718 5.25436L7.48732 6.76574C7.59084 6.85546 7.61539 6.94386 7.61539 7L9.61539 7ZM8.79718 5.25436C8.29932 4.82288 7.6511 4.6 7 4.6V6.6C7.20576 6.6 7.37929 6.67211 7.48732 6.76574L8.79718 5.25436ZM7 7.53333C6.92014 7.53333 6.81975 7.50711 6.72582 7.42571L8.03568 5.91433C7.73979 5.65789 7.36548 5.53333 7 5.53333V7.53333ZM6.72582 7.42571C6.62738 7.34039 6.53846 7.19139 6.53846 7H8.53846C8.53846 6.56107 8.33608 6.17467 8.03568 5.91433L6.72582 7.42571ZM7 11.2667C7.6511 11.2667 8.29932 11.0438 8.79718 10.6123L7.48732 9.10093C7.37929 9.19455 7.20576 9.26667 7 9.26667L7 11.2667ZM8.79718 10.6123C9.29954 10.1769 9.61539 9.55313 9.61539 8.86667L7.61539 8.86667C7.61539 8.92281 7.59084 9.01121 7.48732 9.10093L8.79718 10.6123ZM6.53846 8.86667C6.53846 8.67527 6.62738 8.52627 6.72582 8.44096L8.03568 9.95234C8.33608 9.69199 8.53846 9.3056 8.53846 8.86667H6.53846ZM6.72582 8.44096C6.81975 8.35955 6.92014 8.33333 7 8.33333V10.3333C7.36548 10.3333 7.73978 10.2088 8.03568 9.95234L6.72582 8.44096ZM8.69231 5.6V10.2667H10.6923V5.6H8.69231ZM9.69231 11.2667H10.7692V9.26667H9.69231V11.2667ZM11.7692 10.2667V5.6H9.76923V10.2667H11.7692ZM10.7692 4.6H9.69231V6.6H10.7692V4.6ZM10.2308 7.53333H12.9231V5.53333H10.2308V7.53333ZM13.9231 6.53333V5.6H11.9231V6.53333H13.9231ZM12.9231 4.6H10.2308V6.6H12.9231V4.6ZM9.23077 5.6V6.53333H11.2308V5.6H9.23077ZM10.2308 9.4H11.8462V7.4H10.2308V9.4ZM12.8462 8.4V7.46667H10.8462V8.4H12.8462ZM11.8462 6.46667H10.2308V8.46667H11.8462V6.46667ZM9.23077 7.46667V8.4H11.2308V7.46667H9.23077ZM2.07692 4.66667V1.4H0.0769231V4.66667H2.07692ZM-1 1.4V4.66667H1V1.4H-1ZM0 5.66667H1.07692V3.66667H0V5.66667ZM11.9231 3.26667V4.66667H13.9231V3.26667H11.9231ZM12.9231 5.66667H14V3.66667H12.9231V5.66667ZM15 4.66667V3.26667H13V4.66667H15ZM14 2.26667H12.9231V4.26667H14V2.26667ZM1.61538 1.93333H10.2308V-0.0666667H1.61538V1.93333ZM11.2308 0.933333V0H9.23077V0.933333H11.2308ZM10.2308 -1H1.61538V1H10.2308V-1ZM9.19461 1.55276L12.4254 4.35276L13.7352 2.84138L10.5045 0.0413776L9.19461 1.55276ZM13.7352 4.35276L14.4977 3.69196L13.1878 2.18058L12.4254 2.84138L13.7352 4.35276ZM14.4977 2.18058L11.2669 -0.619422L9.95707 0.891956L13.1878 3.69196L14.4977 2.18058ZM9.95707 -0.619423L9.19461 0.0413775L10.5045 1.55276L11.2669 0.891956L9.95707 -0.619423ZM2.07692 1.4C2.07692 1.59139 1.988 1.74039 1.88957 1.82571L0.579704 0.314328C0.279305 0.574674 0.0769231 0.96107 0.0769231 1.4H2.07692ZM1.88957 1.82571C1.79563 1.90711 1.69525 1.93333 1.61538 1.93333L1.61538 -0.0666667C1.24991 -0.0666667 0.875599 0.0578857 0.579704 0.314328L1.88957 1.82571ZM1.61538 -1C0.964289 -1 0.316062 -0.777115 -0.181795 -0.345639L1.12807 1.16574C1.2361 1.07211 1.40963 1 1.61538 1L1.61538 -1ZM-0.181795 -0.345639C-0.684157 0.0897419 -1 0.713535 -1 1.4L1 1.4C1 1.34386 1.02454 1.25546 1.12807 1.16574L-0.181795 -0.345639ZM-1 11.2V12.6H1V11.2H-1ZM2.07692 12.6V11.2H0.0769231V12.6H2.07692ZM1.07692 10.2H0V12.2H1.07692V10.2ZM1.61538 15H12.3846V13H1.61538V15ZM12.3846 12.0667H1.61538V14.0667H12.3846V12.0667ZM15 12.6V11.2H13V12.6H15ZM14 10.2H12.9231V12.2H14V10.2ZM11.9231 11.2V12.6H13.9231V11.2H11.9231ZM12.3846 15C13.0357 15 13.6839 14.7771 14.1818 14.3456L12.8719 12.8343C12.7639 12.9279 12.5904 13 12.3846 13L12.3846 15ZM14.1818 14.3456C14.6842 13.9103 15 13.2865 15 12.6H13C13 12.6561 12.9755 12.7445 12.8719 12.8343L14.1818 14.3456ZM11.9231 12.6C11.9231 12.4086 12.012 12.2596 12.1104 12.1743L13.4203 13.6857C13.7207 13.4253 13.9231 13.0389 13.9231 12.6H11.9231ZM12.1104 12.1743C12.2044 12.0929 12.3048 12.0667 12.3846 12.0667V14.0667C12.7501 14.0667 13.1244 13.9421 13.4203 13.6857L12.1104 12.1743ZM-1 12.6C-1 13.2865 -0.684157 13.9103 -0.181795 14.3456L1.12807 12.8343C1.02454 12.7445 1 12.6561 1 12.6L-1 12.6ZM-0.181795 14.3456C0.316062 14.7771 0.964289 15 1.61538 15L1.61538 13C1.40963 13 1.2361 12.9279 1.12807 12.8343L-0.181795 14.3456ZM1.61538 12.0667C1.69524 12.0667 1.79563 12.0929 1.88957 12.1743L0.579704 13.6857C0.8756 13.9421 1.24991 14.0667 1.61538 14.0667V12.0667ZM1.88957 12.1743C1.988 12.2596 2.07692 12.4086 2.07692 12.6H0.0769231C0.0769231 13.0389 0.279304 13.4253 0.579704 13.6857L1.88957 12.1743Z" fill="white" mask="url(#path-1-inside-1_715_9114)"/>
</svg>
