<svg width="671" height="894" viewBox="0 0 671 894" fill="none" xmlns="http://www.w3.org/2000/svg">
<path d="M645.796 171.383L499.515 25.1017C483.823 9.41003 462.552 0.518066 440.409 0.518066H84.5563C38.3529 0.692419 0.867188 38.1782 0.867188 84.3815V809.687C0.867188 855.89 38.3529 893.376 84.5563 893.376H586.691C632.894 893.376 670.38 855.89 670.38 809.687V230.663C670.38 208.52 661.488 187.075 645.796 171.383ZM579.891 223.863H447.209V91.1812L579.891 223.863ZM84.5563 809.687V84.3815H363.52V265.708C363.52 288.897 382.176 307.552 405.364 307.552H586.691V809.687H84.5563ZM454.183 391.242H403.97C396.298 391.242 389.324 395.426 385.663 402.226C354.279 459.936 346.956 476.151 335.798 502.827C311.563 452.09 323.768 472.664 285.933 402.226C282.272 395.426 275.123 391.242 267.452 391.242H217.064C200.849 391.242 190.911 408.677 198.931 422.625L279.656 558.62L198.931 694.614C190.737 708.563 200.849 725.998 217.064 725.998H267.452C275.123 725.998 282.097 721.813 285.759 715.014C323.593 645.273 325.86 636.555 335.624 614.412C361.602 667.067 345.91 642.134 385.488 715.014C389.15 721.813 396.298 725.998 403.97 725.998H454.183C470.398 725.998 480.336 708.563 472.316 694.614L391.416 558.62C392.637 556.702 444.245 470.572 472.141 422.625C480.336 408.677 470.223 391.242 454.183 391.242Z" fill="white"/>
</svg>
